<svg id="Layer_1" data-name="Layer 1" xmlns="http://www.w3.org/2000/svg" viewBox="0 0 30 30"><defs><style>.cls-1{fill:#687777;}</style></defs><title>cycle</title><path class="cls-1" d="M4,22a2.84,2.84,0,0,1,.58-1.78.45.45,0,0,0,.07-.46A10.82,10.82,0,0,1,7.46,8a10.1,10.1,0,0,1,4.26-2.49.57.57,0,0,0,.44-.42A3,3,0,0,1,17.8,5a.69.69,0,0,0,.49.49,10.84,10.84,0,0,1,7.55,8.66,10.36,10.36,0,0,1-.5,5.54.54.54,0,0,0,.09.57A3,3,0,0,1,23.1,25a3.5,3.5,0,0,1-1.1-.2.45.45,0,0,0-.47.07,11,11,0,0,1-13.08,0A.4.4,0,0,0,8,24.81,3,3,0,0,1,4,22Zm20.11-6c-.08-.63-.11-1.27-.25-1.89a9,9,0,0,0-5.92-6.68c-.21-.08-.33-.07-.46.14a3,3,0,0,1-5,0,.32.32,0,0,0-.46-.15A9,9,0,0,0,6.89,12a8.86,8.86,0,0,0-.5,6.83c0,.14.05.29.29.26A3,3,0,0,1,9.77,23a.38.38,0,0,0,.2.54A9.1,9.1,0,0,0,14.12,25a8.93,8.93,0,0,0,6-1.51c.16-.1.26-.18.17-.42a2.79,2.79,0,0,1-.16-1.57,3,3,0,0,1,3.2-2.42c.22,0,.27-.09.32-.25A10.85,10.85,0,0,0,24.11,16ZM16,6a1,1,0,0,0-2,0,1,1,0,1,0,2,0ZM7,21a1,1,0,1,0,1,1A1,1,0,0,0,7,21ZM23,21a1,1,0,0,0-1,1,1,1,0,0,0,1,1,1,1,0,0,0,0-2Z"/></svg>