<svg id="Layer_1" data-name="Layer 1" xmlns="http://www.w3.org/2000/svg" viewBox="0 0 30 30"><defs><style>.cls-1{fill:#687777;}</style></defs><title>magazine</title><path class="cls-1" d="M24.51,5.83a4.64,4.64,0,0,0-3.82-1l-3.57.65A3.7,3.7,0,0,0,15,6.67a3.72,3.72,0,0,0-2.13-1.2L9.31,4.82A4.66,4.66,0,0,0,3.89,8.57a4.6,4.6,0,0,0-.08.84V19.47a4.67,4.67,0,0,0,3.83,4.59l5.86,1.06a8.4,8.4,0,0,0,3,0l5.87-1.06a4.67,4.67,0,0,0,3.82-4.59V9.41A4.62,4.62,0,0,0,24.51,5.83ZM14.07,23.33l-.24,0L8,22.22a2.8,2.8,0,0,1-2.3-2.75V9.41a2.8,2.8,0,0,1,2.8-2.8,2.92,2.92,0,0,1,.51,0l3.56.66a1.87,1.87,0,0,1,1.53,1.83Zm10.26-3.86A2.8,2.8,0,0,1,22,22.22l-5.86,1.07-.24,0V9.14A1.88,1.88,0,0,1,17.46,7.3L21,6.65A2.79,2.79,0,0,1,24.28,8.9a2.94,2.94,0,0,1,0,.51Z"/></svg>