<svg id="Layer_1" data-name="Layer 1" xmlns="http://www.w3.org/2000/svg" viewBox="0 0 30 30"><defs><style>.cls-1{fill:#687777;}</style></defs><title>ovulation-days</title><path class="cls-1" d="M21,6.47h-.85V5.61a.86.86,0,0,0-1.71,0v.86H11.59V5.61a.86.86,0,0,0-1.71,0v.86H9a4.27,4.27,0,0,0-4.27,4.26V21A4.27,4.27,0,0,0,9,25.24H21A4.27,4.27,0,0,0,25.24,21V10.73A4.27,4.27,0,0,0,21,6.47ZM9,8.17H21a2.56,2.56,0,0,1,2.56,2.56v.86H6.47v-.86A2.56,2.56,0,0,1,9,8.17ZM21,23.53H9A2.56,2.56,0,0,1,6.47,21V13.29H23.53V21A2.56,2.56,0,0,1,21,23.53ZM20,16a.87.87,0,0,1,0,1.21l-4.05,3.9a2.53,2.53,0,0,1-1.8.74,2.56,2.56,0,0,1-1.81-.75l-1.92-1.79A.85.85,0,0,1,11.54,18l2,1.81a.86.86,0,0,0,1.22,0L18.77,16A.85.85,0,0,1,20,16Z"/></svg>