<svg id="Layer_1" data-name="Layer 1" xmlns="http://www.w3.org/2000/svg" viewBox="0 0 30 30"><defs><style>.cls-1{fill:#687777;}</style></defs><title>period-days</title><path class="cls-1" d="M19.21,13.35a5.88,5.88,0,1,0,5.9,5.86A5.89,5.89,0,0,0,19.21,13.35Zm0,10.07a4.2,4.2,0,1,1,4.21-4.21A4.2,4.2,0,0,1,19.21,23.42Zm1.44-4a.84.84,0,0,1,0,1.19.86.86,0,0,1-.6.24.84.84,0,0,1-.59-.24l-.84-.84a.86.86,0,0,1-.25-.6V17.53a.84.84,0,1,1,1.68,0v1.33Zm4.46-8.67v1.68a.85.85,0,1,1-1.69,0V10.79a2.53,2.53,0,0,0-2.53-2.53H9.11a2.53,2.53,0,0,0-2.53,2.53v.84h7.58a.85.85,0,0,1,0,1.69H6.58v7.57a2.53,2.53,0,0,0,2.53,2.53h3.36a.85.85,0,1,1,0,1.69H9.11a4.22,4.22,0,0,1-4.22-4.22V10.79A4.22,4.22,0,0,1,9.11,6.58H10V5.74a.84.84,0,1,1,1.68,0v.84h6.74V5.74a.84.84,0,1,1,1.68,0v.84h.84a4.22,4.22,0,0,1,4.22,4.21Z"/></svg>