<svg id="Layer_1" data-name="Layer 1" xmlns="http://www.w3.org/2000/svg" viewBox="0 0 30 30"><defs><style>.cls-1{fill:#687777;}</style></defs><title>pms-days</title><path class="cls-1" d="M21,6.38h-.86V5.52a.86.86,0,0,0-1.72,0v.86h-6.9V5.52a.86.86,0,0,0-1.72,0v.86H9a4.32,4.32,0,0,0-4.31,4.31V21A4.31,4.31,0,0,0,9,25.34H21A4.31,4.31,0,0,0,25.34,21V10.69A4.32,4.32,0,0,0,21,6.38Zm0,17.24H9A2.59,2.59,0,0,1,6.38,21V13.28h5.17a.87.87,0,0,0,0-1.73H6.38v-.86A2.59,2.59,0,0,1,9,8.11H21a2.59,2.59,0,0,1,2.59,2.58v.86H18.45a.87.87,0,0,0,0,1.73h5.17V21A2.59,2.59,0,0,1,21,23.62ZM15.86,12.41v6a.86.86,0,1,1-1.72,0v-6a.86.86,0,0,1,1.72,0Zm0,8.62a.86.86,0,1,1-.86-.86A.85.85,0,0,1,15.86,21Z"/></svg>