<svg xmlns="http://www.w3.org/2000/svg" viewBox="0 0 30 30"><defs><style>.cls-1{fill:#687777;}</style></defs><title>aboutUs</title><g id="Layer_2" data-name="Layer 2"><path class="cls-1" d="M15,25.58A10.58,10.58,0,1,1,25.58,15,10.6,10.6,0,0,1,15,25.58Zm0-19A8.46,8.46,0,1,0,23.46,15,8.47,8.47,0,0,0,15,6.54Z"/><path class="cls-1" d="M15.45,20.76a1.07,1.07,0,0,1-1.06-1.06V15.21l-.27,0a1.06,1.06,0,0,1-1-1.12,1.13,1.13,0,0,1,1.12-1h.31A1.93,1.93,0,0,1,16.51,15v4.7A1.06,1.06,0,0,1,15.45,20.76Z"/><path class="cls-1" d="M14.85,11.5a1.26,1.26,0,1,1,1.25-1.26A1.26,1.26,0,0,1,14.85,11.5Z"/></g></svg>