<svg xmlns="http://www.w3.org/2000/svg" viewBox="0 0 30 30"><defs><style>.cls-1{fill:#687777;}</style></defs><title>addNewPerson-menu</title><g id="Layer_2" data-name="Layer 2"><path class="cls-1" d="M18.56,23.55a.71.71,0,0,1-.71-.71,5,5,0,0,0-10,0,.71.71,0,0,1-1.42,0,6.42,6.42,0,0,1,12.83,0A.71.71,0,0,1,18.56,23.55Zm4.28-7.84H18.56a.71.71,0,0,1,0-1.42h4.28a.71.71,0,1,1,0,1.42ZM20,17.14V12.86a.71.71,0,0,1,1.42,0v4.28a.71.71,0,0,1-1.42,0ZM12.86,15a4.28,4.28,0,1,1,4.28-4.28A4.27,4.27,0,0,1,12.86,15Zm0-7.13a2.85,2.85,0,1,0,2.85,2.85A2.86,2.86,0,0,0,12.86,7.87Z"/></g></svg>