<svg xmlns="http://www.w3.org/2000/svg" viewBox="0 0 30 30"><defs><style>.cls-1{fill:#687777;}</style></defs><title>calendar-menu</title><g id="Layer_2" data-name="Layer 2"><path class="cls-1" d="M21.43,5.82h-.92V4.9a.92.92,0,0,0-1.84,0v.92H11.33V4.9a.92.92,0,1,0-1.84,0v.92H8.57A4.6,4.6,0,0,0,4,10.41v11A4.61,4.61,0,0,0,8.57,26H21.43A4.61,4.61,0,0,0,26,21.43v-11A4.6,4.6,0,0,0,21.43,5.82ZM5.82,10.41A2.75,2.75,0,0,1,8.57,7.66H21.43a2.75,2.75,0,0,1,2.75,2.75v.92H5.82ZM21.43,24.18H8.57a2.75,2.75,0,0,1-2.75-2.75V13.16H24.18v8.27A2.75,2.75,0,0,1,21.43,24.18Z"/><circle class="cls-1" cx="15" cy="17.75" r="1.38"/><circle class="cls-1" cx="10.41" cy="17.75" r="1.38"/><circle class="cls-1" cx="19.59" cy="17.75" r="1.38"/></g></svg>