<svg xmlns="http://www.w3.org/2000/svg" viewBox="0 0 30 30"><defs><style>.cls-1{fill:#687777;}</style></defs><title>chart-menu</title><g id="Layer_2" data-name="Layer 2"><path class="cls-1" d="M24,22.73H9.41a2.14,2.14,0,0,1-2.14-2.14V6A1.29,1.29,0,0,0,4.7,6V20.59A4.71,4.71,0,0,0,9.41,25.3H24a1.29,1.29,0,1,0,0-2.57Z"/><path class="cls-1" d="M12.84,12.45a1.28,1.28,0,0,0-1.29,1.28v6a1.29,1.29,0,1,0,2.57,0v-6A1.28,1.28,0,0,0,12.84,12.45Z"/><path class="cls-1" d="M16.69,16.3v3.43a1.29,1.29,0,1,0,2.57,0V16.3a1.29,1.29,0,0,0-2.57,0Z"/><path class="cls-1" d="M21.83,12.88v6.85a1.29,1.29,0,1,0,2.57,0V12.88a1.29,1.29,0,1,0-2.57,0Z"/><path class="cls-1" d="M9.84,11.16a1.24,1.24,0,0,0,.8-.28l1.95-1.56a2.05,2.05,0,0,1,2.73.15,4.65,4.65,0,0,0,6.26.26L24.8,7a1.28,1.28,0,1,0-1.57-2L23.14,5,19.92,7.77a2.07,2.07,0,0,1-2.78-.12A4.61,4.61,0,0,0,11,7.31L9,8.88a1.28,1.28,0,0,0,.81,2.28Z"/></g></svg>