<svg xmlns="http://www.w3.org/2000/svg" viewBox="0 0 30 30"><defs><style>.cls-1{fill:#687777;}</style></defs><title>ContactAnExpert-menu</title><g id="Layer_2" data-name="Layer 2"><path class="cls-1" d="M23.35,15.39V14.07a8.35,8.35,0,0,0-16.7,0v1.32a4.64,4.64,0,0,0,1.86,8.89,1.85,1.85,0,0,0,1.85-1.86V16.86A1.85,1.85,0,0,0,8.51,15v-.93a6.5,6.5,0,0,1,13,0V15a1.86,1.86,0,0,0-1.86,1.86v5.56H16.86a.93.93,0,0,0,0,1.86H21.5a4.64,4.64,0,0,0,1.85-8.89Zm-14.84,7h0a2.78,2.78,0,1,1,0-5.56Zm13,0V16.86a2.78,2.78,0,0,1,0,5.56Z"/></g></svg>