<svg xmlns="http://www.w3.org/2000/svg" viewBox="0 0 30 30"><defs><style>.cls-1{fill:#49c7ef;}</style></defs><title>copy</title><g id="Layer_2" data-name="Layer 2"><path class="cls-1" d="M23.84,6.57l-2.2-2.28a2.93,2.93,0,0,0-2.09-.88H15a4.84,4.84,0,0,0-4.73,3.86h-.1A4.85,4.85,0,0,0,5.34,12.1v9.66a4.84,4.84,0,0,0,4.83,4.83H16a4.82,4.82,0,0,0,4.82-4.83v-.1a4.83,4.83,0,0,0,3.87-4.73V8.59A2.87,2.87,0,0,0,23.84,6.57ZM16,24.66h-5.8a2.9,2.9,0,0,1-2.9-2.9V12.1a2.89,2.89,0,0,1,2.9-2.89v7.72A4.83,4.83,0,0,0,15,21.76h3.86A2.89,2.89,0,0,1,16,24.66Zm3.86-4.83H15a2.9,2.9,0,0,1-2.9-2.9V8.24A2.9,2.9,0,0,1,15,5.34h3.86V7.27a1.94,1.94,0,0,0,1.93,1.94h1.94v7.72A2.9,2.9,0,0,1,19.83,19.83Z"/></g></svg>