<svg xmlns="http://www.w3.org/2000/svg" viewBox="0 0 30 30"><defs><style>.cls-1{fill:#c03762;}</style></defs><title>exit</title><g id="Layer_2" data-name="Layer 2"><path class="cls-1" d="M24.67,12.48,21.2,9a.89.89,0,0,0-1.26,0,.9.9,0,0,0,0,1.24l3.46,3.46a1.31,1.31,0,0,1,.27.35h0l-14,0a.89.89,0,1,0,0,1.78h0l14,0h.07a1.73,1.73,0,0,1-.3.41l-3.46,3.46A.89.89,0,0,0,21.18,21l0,0,3.46-3.47a3.55,3.55,0,0,0,0-5Z"/><path class="cls-1" d="M10.54,23.93H8.75a2.68,2.68,0,0,1-2.67-2.68V8.75A2.68,2.68,0,0,1,8.75,6.07h1.79a.89.89,0,0,0,0-1.78H8.75A4.46,4.46,0,0,0,4.29,8.75v12.5a4.46,4.46,0,0,0,4.46,4.46h1.79a.89.89,0,0,0,0-1.78Z"/></g></svg>