<svg xmlns="http://www.w3.org/2000/svg" viewBox="0 0 30 30"><defs><style>.cls-1{fill:#687777;}</style></defs><title>guide</title><g id="Layer_2" data-name="Layer 2"><path class="cls-1" d="M15.72,25.54A12,12,0,0,1,7.1,21.83,10.05,10.05,0,0,1,4.52,14,10.59,10.59,0,0,1,15,4.46a10.17,10.17,0,0,1,6.6,2.43,10.89,10.89,0,0,1,3.9,8.4v6.59c0,2.56-1.09,3.65-3.65,3.65Zm-.7-19A8.42,8.42,0,0,0,6.6,14.22a8,8,0,0,0,2.05,6.21,9.85,9.85,0,0,0,7.08,3h6a1.72,1.72,0,0,0,1.73-1.73V15.29a8.82,8.82,0,0,0-3.15-6.8A8.13,8.13,0,0,0,15,6.56Zm.78,3A3.25,3.25,0,0,0,12,12.15a3.81,3.81,0,0,0,0,.59.81.81,0,1,0,1.62,0,1.63,1.63,0,0,1,1.63-1.63,1.53,1.53,0,0,1,.3,0,1.62,1.62,0,0,1,.49,3A3.19,3.19,0,0,0,14.41,17v.6a.81.81,0,1,0,1.62,0V17a1.62,1.62,0,0,1,.76-1.43,3.25,3.25,0,0,0-1-6Zm-.58,9.7h0a.81.81,0,0,1,.81.81h0a.81.81,0,0,1-.81.81h0a.81.81,0,0,1-.81-.81h0A.81.81,0,0,1,15.22,19.24Z"/></g></svg>