<svg xmlns="http://www.w3.org/2000/svg" viewBox="0 0 30 30"><defs><style>.cls-1{fill:#687777;}</style></defs><title>instruction</title><g id="Layer_2" data-name="Layer 2"><path class="cls-1" d="M15,12.27c5.4-.14,5.4-8,0-8.19C9.6,4.23,9.6,12.13,15,12.27ZM15,5.9a2.28,2.28,0,0,1,0,4.55A2.28,2.28,0,0,1,15,5.9Zm9.28,8.34a4.54,4.54,0,0,0-3.73-1l-3.47.64A3.62,3.62,0,0,0,15,15.06a3.62,3.62,0,0,0-2.08-1.17l-3.47-.64a4.55,4.55,0,0,0-5.36,4.48v2.54a4.54,4.54,0,0,0,3.73,4.47l5.72,1a8,8,0,0,0,2.92,0l5.72-1a4.54,4.54,0,0,0,3.73-4.47V17.73a4.52,4.52,0,0,0-1.63-3.49ZM14.09,24l-.23,0L8.15,23A2.72,2.72,0,0,1,5.9,20.27V17.73A2.74,2.74,0,0,1,9.12,15l3.48.64a1.81,1.81,0,0,1,1.49,1.79Zm10-3.76A2.72,2.72,0,0,1,21.86,23l-5.72,1-.23,0V17.47a1.81,1.81,0,0,1,1.49-1.79L20.88,15a2.73,2.73,0,0,1,3.22,2.69v2.54Z"/></g></svg>