<svg xmlns="http://www.w3.org/2000/svg" viewBox="0 0 30 30"><defs><style>.cls-1{fill:#687777;}</style></defs><title>inviteFriends</title><g id="Layer_2" data-name="Layer 2"><path class="cls-1" d="M10.89,15.91A4.11,4.11,0,1,1,15,11.8,4.12,4.12,0,0,1,10.89,15.91Zm0-6.39a2.29,2.29,0,1,0,2.28,2.28A2.29,2.29,0,0,0,10.89,9.52Zm6.85,15.53V24.6A6.86,6.86,0,1,0,4,24.6v.45a.92.92,0,1,0,1.83,0V24.6a5,5,0,1,1,10.05,0v.45a.92.92,0,1,0,1.83,0ZM26,20.48A6.4,6.4,0,0,0,15.3,15.72a.91.91,0,0,0,1.21,1.37h0a4.57,4.57,0,0,1,7.62,3.4.92.92,0,1,0,1.83,0ZM20,12.26a4.12,4.12,0,1,1,4.11-4.11A4.12,4.12,0,0,1,20,12.26Zm0-6.4a2.29,2.29,0,1,0,2.28,2.29A2.28,2.28,0,0,0,20,5.86Z"/></g></svg>