<svg xmlns="http://www.w3.org/2000/svg" viewBox="0 0 30 30"><defs><style>.cls-1{fill:#687777;}</style></defs><title>point</title><g id="Layer_2" data-name="Layer 2"><path class="cls-1" d="M19.91,25.77A3.14,3.14,0,0,1,18,25.14l-3-2.41-3,2.39a3.14,3.14,0,0,1-3.73,0A3.08,3.08,0,0,1,7.1,21.65L8.15,18l-3-2.14A3.14,3.14,0,0,1,7,10.18h3.82L12,6.4a3.15,3.15,0,0,1,6,0l1.17,3.79H23a3.14,3.14,0,0,1,1.86,5.68l-3,2.14,1.05,3.68a3.08,3.08,0,0,1-1.16,3.48A3.19,3.19,0,0,1,19.91,25.77ZM15,20.2a1.09,1.09,0,0,1,.69.24l3.71,2.93a.83.83,0,0,0,1,0,.86.86,0,0,0,.34-1L19.5,17.86a1.12,1.12,0,0,1,.42-1.21l3.61-2.59A.92.92,0,0,0,23,12.4H18.35a1.12,1.12,0,0,1-1.07-.78L15.87,7.06a.92.92,0,0,0-1.74,0l-1.41,4.55a1.11,1.11,0,0,1-1.06.78H7a.92.92,0,0,0-.54,1.66l3.62,2.59a1.11,1.11,0,0,1,.42,1.21L9.23,22.3a.87.87,0,0,0,.32,1.05.9.9,0,0,0,1.08,0l3.68-2.91A1.13,1.13,0,0,1,15,20.2Z"/></g></svg>