<svg xmlns="http://www.w3.org/2000/svg" viewBox="0 0 30 30"><defs><style>.cls-1{fill:#e27fb3;}</style></defs><title>premium-version</title><g id="Layer_2" data-name="Layer 2"><path class="cls-1" d="M25.67,7.43a2,2,0,0,0-2.16.43L21,10.42,16.4,5.87a2,2,0,0,0-2.8,0L9.05,10.42,6.49,7.86A2,2,0,0,0,3.1,9.26V19.75a5,5,0,0,0,5,5H21.94a5,5,0,0,0,5-5V9.26A2,2,0,0,0,25.67,7.43Zm-.76,12.32a3,3,0,0,1-3,3H8.06a3,3,0,0,1-3-3V9.26l3.26,3.26a1,1,0,0,0,1.4,0L15,7.27l5.25,5.25a1,1,0,0,0,1.4,0l3.26-3.26Z"/></g></svg>