<svg xmlns="http://www.w3.org/2000/svg" viewBox="0 0 30 30"><defs><style>.cls-1{fill:#687777;}</style></defs><title>privacy</title><g id="Layer_2" data-name="Layer 2"><path class="cls-1" d="M21.26,11.8V10.53a6.26,6.26,0,0,0-12.52,0V11.8a4.46,4.46,0,0,0-2.68,4.09v5.37a4.47,4.47,0,0,0,4.47,4.47h8.94a4.47,4.47,0,0,0,4.47-4.47V15.89A4.46,4.46,0,0,0,21.26,11.8ZM10.53,10.53a4.47,4.47,0,1,1,8.94,0v.89H10.53ZM22.15,21.26a2.68,2.68,0,0,1-2.68,2.68H10.53a2.68,2.68,0,0,1-2.68-2.68V15.89a2.68,2.68,0,0,1,2.68-2.68h8.94a2.68,2.68,0,0,1,2.68,2.68Z"/><path class="cls-1" d="M15,16.79a.89.89,0,0,0-.89.89v1.79a.89.89,0,0,0,1.78,0V17.68A.89.89,0,0,0,15,16.79Z"/></g></svg>