<svg xmlns="http://www.w3.org/2000/svg" viewBox="0 0 30 30"><defs><style>.cls-1{fill:#687777;}</style></defs><title>psychologicalTest-menu</title><g id="Layer_2" data-name="Layer 2"><path class="cls-1" d="M21.65,7.16,20.19,5.7a4.41,4.41,0,0,0-3.12-1.3h-5.6A4.43,4.43,0,0,0,7.05,8.82V21.18a4.43,4.43,0,0,0,4.42,4.42h7.06A4.43,4.43,0,0,0,23,21.18V10.28a4.41,4.41,0,0,0-1.3-3.12ZM20.4,8.41a2.25,2.25,0,0,1,.34.41H18.53V6.61a2.25,2.25,0,0,1,.41.34Zm.78,12.77a2.65,2.65,0,0,1-2.65,2.65H11.47a2.65,2.65,0,0,1-2.65-2.65V8.82a2.65,2.65,0,0,1,2.65-2.65h5.3V8.82a1.76,1.76,0,0,0,1.76,1.76h2.65Zm-2.65-8.83a.89.89,0,1,1,0,1.77H11.47a.89.89,0,1,1,0-1.77Zm.89,4.42a.89.89,0,0,1-.89.88H11.47a.89.89,0,1,1,0-1.77h7.06A.89.89,0,0,1,19.42,16.77Zm-.17,3a.88.88,0,0,1-.2,1.23,5.66,5.66,0,0,1-3.05,1,2.87,2.87,0,0,1-1.76-.61c-.29-.2-.4-.27-.62-.27a3.46,3.46,0,0,0-1.62.7.88.88,0,0,1-1.07-1.4,5.19,5.19,0,0,1,2.69-1.06,2.64,2.64,0,0,1,1.62.57,1.2,1.2,0,0,0,.76.31,4,4,0,0,0,2-.72.9.9,0,0,1,1.24.2Z"/></g></svg>