<svg xmlns="http://www.w3.org/2000/svg" viewBox="0 0 30 30"><defs><style>.cls-1{fill:#687777;}</style></defs><title>relationships</title><g id="Layer_2" data-name="Layer 2"><path class="cls-1" d="M24.82,23.64l-5-5a8.39,8.39,0,1,0-1.18,1.18l5,5a.83.83,0,0,0,1.18-1.18ZM6.64,13.34a6.7,6.7,0,1,1,6.7,6.7A6.7,6.7,0,0,1,6.64,13.34ZM15,10a2.45,2.45,0,0,0-1.68.69A2.44,2.44,0,0,0,11.67,10a2.6,2.6,0,0,0-2.51,2.68c0,1.68,1.71,3.41,3.14,4.56a1.67,1.67,0,0,0,2.09,0c1.43-1.15,3.14-2.88,3.14-4.56A2.61,2.61,0,0,0,15,10Zm-1.67,5.93c-1.55-1.24-2.52-2.49-2.52-3.25a.93.93,0,0,1,.84-1,.93.93,0,0,1,.84,1,.84.84,0,1,0,1.67,0,.93.93,0,0,1,.84-1,.93.93,0,0,1,.84,1c0,.76-1,2-2.51,3.25Z"/></g></svg>