<svg xmlns="http://www.w3.org/2000/svg" viewBox="0 0 30 30"><defs><style>.cls-1{fill:#687777;}</style></defs><title>reminder</title><g id="Layer_2" data-name="Layer 2"><path class="cls-1" d="M15.86,6.42v-.9a.86.86,0,1,0-1.72,0v.9A9.46,9.46,0,0,0,7.83,22.05a2.61,2.61,0,0,0-1.45,2.44.86.86,0,1,0,1.72,0,1,1,0,0,1,1-1.06.49.49,0,0,0,.17-.06,9.41,9.41,0,0,0,11.55,0,.47.47,0,0,0,.15.06,1,1,0,0,1,1,1.06.86.86,0,1,0,1.72,0,2.61,2.61,0,0,0-1.45-2.44A9.47,9.47,0,0,0,15.86,6.42ZM7.24,15.86A7.76,7.76,0,1,1,15,23.62,7.76,7.76,0,0,1,7.24,15.86Z"/><path class="cls-1" d="M21.22,4.65a.87.87,0,0,0,0,1.73,2.24,2.24,0,0,1,2.4,2.06v.09a.87.87,0,1,0,1.73,0A4,4,0,0,0,21.3,4.65Z"/><path class="cls-1" d="M6.38,8.53a2.23,2.23,0,0,1,2.3-2.16h.1a.87.87,0,0,0,0-1.73A4,4,0,0,0,4.65,8.46v.07a.87.87,0,1,0,1.73,0Z"/><path class="cls-1" d="M15.86,14.93V11a.86.86,0,0,0-1.72,0v4.31a.86.86,0,0,0,.25.61L17,18.48a.86.86,0,0,0,1.22-1.22Z"/></g></svg>