<svg xmlns="http://www.w3.org/2000/svg" viewBox="0 0 30 30"><defs><style>.cls-1{fill:#687777;}</style></defs><title>setting-menu</title><g id="Layer_2" data-name="Layer 2"><g id="_01_align_center" data-name=" 01 align center"><path class="cls-1" d="M17.78,26.1H12.22V22.85a8.45,8.45,0,0,1-2.63-1.52L6.77,23,4,18.15l2.81-1.63a8.62,8.62,0,0,1,0-3L4,11.85,6.77,7,9.59,8.67a8.45,8.45,0,0,1,2.63-1.52V3.9h5.56V7.15a8.45,8.45,0,0,1,2.63,1.52L23.23,7,26,11.85l-2.81,1.63a8.62,8.62,0,0,1,0,3L26,18.15,23.23,23l-2.82-1.63a8.26,8.26,0,0,1-2.63,1.52Zm-3.71-1.85h1.86v-2.8l.69-.18a6.34,6.34,0,0,0,3-1.74l.5-.51,2.43,1.4.93-1.6-2.43-1.4.19-.69a6.59,6.59,0,0,0,0-3.47l-.19-.69,2.43-1.4-.93-1.6L20.12,11l-.5-.5a6.51,6.51,0,0,0-3-1.74l-.69-.18V5.75H14.07v2.8l-.69.18a6.34,6.34,0,0,0-3,1.74l-.5.51L7.45,9.57l-.93,1.61L9,12.57l-.19.7a6.55,6.55,0,0,0,0,3.46l.19.7L6.52,18.82l.93,1.61L9.88,19l.5.51a6.4,6.4,0,0,0,3,1.73l.69.18ZM15,18.7A3.7,3.7,0,1,1,18.7,15,3.7,3.7,0,0,1,15,18.7Zm0-5.55A1.85,1.85,0,1,0,16.85,15,1.85,1.85,0,0,0,15,13.15Z"/></g></g></svg>