<svg xmlns="http://www.w3.org/2000/svg" viewBox="0 0 30 30"><defs><style>.cls-1{fill:#49c7ef;}</style></defs><title>share</title><g id="Layer_2" data-name="Layer 2"><path class="cls-1" d="M21.21,17.25A4,4,0,0,0,18,19l-5.5-2.48a3.87,3.87,0,0,0,0-3L18,11a3.94,3.94,0,1,0-.7-2.24,3.71,3.71,0,0,0,.07.67l-5.84,2.65a3.94,3.94,0,1,0,0,5.77l5.85,2.64a4.9,4.9,0,0,0-.07.67,3.95,3.95,0,1,0,3.95-3.95Zm0-10.7A2.26,2.26,0,1,1,19,8.8h0A2.26,2.26,0,0,1,21.21,6.55ZM8.81,17.25A2.25,2.25,0,1,1,11.07,15h0A2.26,2.26,0,0,1,8.81,17.25Zm12.4,6.2a2.26,2.26,0,1,1,2.25-2.25h0A2.25,2.25,0,0,1,21.21,23.45Z"/></g></svg>