<svg xmlns="http://www.w3.org/2000/svg" viewBox="0 0 30 30"><defs><style>.cls-1{fill:#687777;}</style></defs><title>symptoms-menu</title><g id="Layer_2" data-name="Layer 2"><path class="cls-1" d="M12,15.51A5.48,5.48,0,1,0,6.54,10,5.48,5.48,0,0,0,12,15.51Zm0-9.13A3.65,3.65,0,1,1,8.37,10,3.64,3.64,0,0,1,12,6.38Z"/><path class="cls-1" d="M12,16.32a8.22,8.22,0,0,0-8.21,8.21.91.91,0,1,0,1.82,0,6.39,6.39,0,0,1,12.78,0,.92.92,0,1,0,1.83,0A8.22,8.22,0,0,0,12,16.32Z"/><path class="cls-1" d="M24.13,11.32c-1.2.06-2.12.57-2.07,1.77.06-1.2-.86-1.71-2.06-1.77a2.17,2.17,0,0,0-2.06,2.27c0,1.79,2.32,3.88,3.48,4.81a1,1,0,0,0,1.28,0c1.16-.93,3.49-3,3.49-4.81A2.17,2.17,0,0,0,24.13,11.32Zm-2.06,5.57c-1.4-1.13-2.27-2.25-2.27-2.93a.77.77,0,1,1,1.51,0,.76.76,0,1,0,1.51,0,.77.77,0,1,1,1.51,0C24.33,14.64,23.46,15.76,22.07,16.89Z"/></g></svg>