<svg xmlns="http://www.w3.org/2000/svg" viewBox="0 0 30 30"><defs><style>.cls-1{fill:#687777;}</style></defs><title>cal</title><g id="Layer_2" data-name="Layer 2"><path class="cls-1" d="M14.4,25.4a10.68,10.68,0,0,1-1.13-.2,7.45,7.45,0,0,1-5.61-5.59,8.08,8.08,0,0,1,.2-4.44,21.67,21.67,0,0,1,5.41-9.32,15.38,15.38,0,0,1,1.32-1.1.64.64,0,0,1,1.05.52c0,.43,0,.86,0,1.28V9.66a2.45,2.45,0,0,0,0,.25l.18-.17L18.1,7.49a.65.65,0,0,1,1.13.11,21.17,21.17,0,0,1,2.52,5.64,19.83,19.83,0,0,1,.76,3.66,7.59,7.59,0,0,1-6.05,8.37c-.29.06-.59.09-.88.13Zm0-18.79-.08-.05-.42.49a20.78,20.78,0,0,0-4.17,6.67,11.8,11.8,0,0,0-.94,3.69,6.09,6.09,0,0,0,2.35,5.35,9.1,9.1,0,0,0,1,.7v-.12a3,3,0,0,1,0-2,27.32,27.32,0,0,1,2.33-4.69.61.61,0,0,1,1.08.05,30.94,30.94,0,0,1,2.08,4,4,4,0,0,1,.41,1.7,8.79,8.79,0,0,1-.15,1c.16-.09.31-.17.46-.27a6.18,6.18,0,0,0,2.87-4.54,8.39,8.39,0,0,0-.14-2.69,22.56,22.56,0,0,0-2-6c-.18-.37-.39-.73-.59-1.11L17,10.43l-1.48,1.48a.6.6,0,0,1-.7.16.65.65,0,0,1-.41-.63V6.61ZM15,18.29l0,0a22.53,22.53,0,0,0-1.57,3.29,2,2,0,0,0-.16.8,1.77,1.77,0,0,0,2.94,1.26,1.58,1.58,0,0,0,.5-1.81c-.31-.83-.69-1.63-1.06-2.43C15.45,19.05,15.23,18.68,15,18.29Z"/></g></svg>