<svg xmlns="http://www.w3.org/2000/svg" viewBox="0 0 30 30"><defs><style>.cls-1{fill:#687777;}</style></defs><title>camera</title><g id="Layer_2" data-name="Layer 2"><path class="cls-1" d="M21.58,7.48h-.47L19.05,4.81a2.85,2.85,0,0,0-2.23-1.1H13.18A2.85,2.85,0,0,0,11,4.81L8.89,7.48H8.42a4.71,4.71,0,0,0-4.71,4.7v9.4a4.72,4.72,0,0,0,4.71,4.71H21.58a4.72,4.72,0,0,0,4.71-4.71v-9.4A4.71,4.71,0,0,0,21.58,7.48ZM12.44,6a.93.93,0,0,1,.74-.36h3.64a.93.93,0,0,1,.74.36l1.17,1.52H11.27Zm12,15.62a2.82,2.82,0,0,1-2.82,2.82H8.42A2.82,2.82,0,0,1,5.6,21.58v-9.4A2.82,2.82,0,0,1,8.42,9.36H21.58a2.82,2.82,0,0,1,2.82,2.82Z"/><path class="cls-1" d="M15,11.24a5.64,5.64,0,1,0,5.64,5.64A5.63,5.63,0,0,0,15,11.24Zm0,9.4a3.76,3.76,0,1,1,3.76-3.76A3.76,3.76,0,0,1,15,20.64Z"/></g></svg>