<svg xmlns="http://www.w3.org/2000/svg" viewBox="0 0 30 30"><defs><style>.cls-1{fill:#687777;}</style></defs><title>ChangeNumber</title><g id="Layer_2" data-name="Layer 2"><path class="cls-1" d="M26,19.38l-3.16-3.15a1,1,0,1,0-1.4,1.31l.05,0,2.19,2.2a8.94,8.94,0,0,1-6.41-2.68.94.94,0,0,0-1.33,0l0,0v0a1,1,0,0,0,.07,1.33,10.74,10.74,0,0,0,7.7,3.18l-2.19,2.2a1,1,0,0,0-.11,1.35,1,1,0,0,0,1.36.1l.1-.1L26,22.09A1.93,1.93,0,0,0,26,19.38Z"/><path class="cls-1" d="M23.63,10.19l-2.19,2.2-.06.08a.95.95,0,0,0,1.41,1.27l1.64-1.63L26,10.59a1.91,1.91,0,0,0,.43-2,1.87,1.87,0,0,0-.43-.7L22.79,4.73a1,1,0,0,0-1.35-.06A1,1,0,0,0,21.38,6l.06,0,2.19,2.2c-4.73,0-7.32,2.56-9.67,5.25-2.16-2.44-4.72-4.87-9-5.21l-.46-.05a1,1,0,0,0-1,1,1,1,0,0,0,1,1l.28,0c3.73.29,5.88,2.39,8,4.77-2.07,2.36-4.2,4.5-7.9,4.75l-.39,0a1,1,0,0,0,.12,1.91l.51,0c4.82-.37,7.43-3.45,9.76-6.14S19.36,10.21,23.63,10.19Z"/></g></svg>