<svg xmlns="http://www.w3.org/2000/svg" viewBox="0 0 30 30"><defs><style>.cls-1{fill:#687777;}</style></defs><title>dateOfBirth</title><g id="Layer_2" data-name="Layer 2"><path class="cls-1" d="M21,6.5H20.1V5.65a.85.85,0,0,0-1.7,0V6.5H11.6V5.65a.85.85,0,0,0-1.7,0V6.5H9.05A4.25,4.25,0,0,0,4.8,10.75V21A4.25,4.25,0,0,0,9.05,25.2H21A4.25,4.25,0,0,0,25.2,21V10.75A4.25,4.25,0,0,0,21,6.5ZM6.5,10.75A2.55,2.55,0,0,1,9.05,8.2H21a2.55,2.55,0,0,1,2.55,2.55v.85H6.5ZM21,23.5H9.05A2.55,2.55,0,0,1,6.5,21V13.3h17V21A2.55,2.55,0,0,1,21,23.5Z"/><circle class="cls-1" cx="15" cy="17.55" r="1.28"/><circle class="cls-1" cx="10.75" cy="17.55" r="1.28"/><circle class="cls-1" cx="19.25" cy="17.55" r="1.28"/></g></svg>