<svg xmlns="http://www.w3.org/2000/svg" viewBox="0 0 30 30"><defs><style>.cls-1{fill:#c03762;}</style></defs><title>delete</title><g id="Layer_2" data-name="Layer 2"><path class="cls-1" d="M23.15,7.76H20.34a4.52,4.52,0,0,0-4.43-3.62H14.09A4.52,4.52,0,0,0,9.66,7.76H6.85a.91.91,0,0,0,0,1.81h.91V21.34a4.52,4.52,0,0,0,4.52,4.52h5.44a4.52,4.52,0,0,0,4.52-4.52V9.57h.91a.91.91,0,0,0,0-1.81ZM14.09,6h1.82a2.72,2.72,0,0,1,2.56,1.81H11.53A2.72,2.72,0,0,1,14.09,6Zm6.34,15.39a2.71,2.71,0,0,1-2.71,2.71H12.28a2.71,2.71,0,0,1-2.71-2.71V9.57H20.43Z"/><path class="cls-1" d="M13.19,20.43a.9.9,0,0,0,.9-.9V14.09a.91.91,0,0,0-1.81,0v5.44A.9.9,0,0,0,13.19,20.43Z"/><path class="cls-1" d="M16.81,20.43a.9.9,0,0,0,.91-.9V14.09a.91.91,0,0,0-1.81,0v5.44A.9.9,0,0,0,16.81,20.43Z"/></g></svg>