<svg xmlns="http://www.w3.org/2000/svg" viewBox="0 0 30 30"><defs><style>.cls-1{fill:#687777;}</style></defs><title>gallery</title><g id="Layer_2" data-name="Layer 2"><path class="cls-1" d="M21.63,3.63H8.37A4.74,4.74,0,0,0,3.63,8.37V21.63a4.74,4.74,0,0,0,4.74,4.74H21.63a4.74,4.74,0,0,0,4.74-4.74V8.37A4.74,4.74,0,0,0,21.63,3.63ZM8.37,5.53H21.63a2.84,2.84,0,0,1,2.84,2.84V21.63a2.87,2.87,0,0,1-.28,1.22l-8.68-8.68a4.74,4.74,0,0,0-6.7,0h0L5.53,17.45V8.37A2.84,2.84,0,0,1,8.37,5.53Zm0,18.94a2.84,2.84,0,0,1-2.84-2.84v-1.5l4.62-4.62a2.84,2.84,0,0,1,4,0h0l8.68,8.68a2.87,2.87,0,0,1-1.22.28Z"/><path class="cls-1" d="M18.79,13.58a3.32,3.32,0,1,0-3.32-3.32A3.32,3.32,0,0,0,18.79,13.58Zm0-4.74a1.42,1.42,0,1,1-1.42,1.42A1.43,1.43,0,0,1,18.79,8.84Z"/></g></svg>