<svg xmlns="http://www.w3.org/2000/svg" viewBox="0 0 30 30"><defs><style>.cls-1{fill:#687777;}</style></defs><title>height</title><g id="Layer_2" data-name="Layer 2"><path class="cls-1" d="M24.84,22.25,22.26,24.8a.68.68,0,0,1-1,0l-2.58-2.55a.8.8,0,0,1,0-1.15h0a.81.81,0,0,1,1.14,0l1,1.08L21,7.84l-1.1,1.09a.8.8,0,0,1-1.13,0h0a.8.8,0,0,1,0-1.15L21.35,5.2a.67.67,0,0,1,.95,0l2.56,2.62a.82.82,0,0,1,0,1.13l0,0a.81.81,0,0,1-1.15,0L22.61,7.9V22.2l1.08-1.1a.81.81,0,0,1,1.16,0h0A.8.8,0,0,1,24.84,22.25Z"/><path class="cls-1" d="M14.58,4.73a1,1,0,0,1,.24,0,1.78,1.78,0,0,1,.86.54,1.48,1.48,0,0,1,.37.89c0,.3,0,.59,0,.9a.81.81,0,0,1-.8.79h0a.8.8,0,0,1-.8-.8V6.35h-.81a.8.8,0,0,1-.8-.8v0a.8.8,0,0,1,.8-.8Z"/><path class="cls-1" d="M8.08,5.53h0a.8.8,0,0,1-.8.8H6.52v.76a.8.8,0,0,1-.8.8h0a.81.81,0,0,1-.8-.81V7a5.62,5.62,0,0,1,0-.92,1.53,1.53,0,0,1,1.1-1.25l.1,0a.75.75,0,0,1,.26,0h.87A.8.8,0,0,1,8.08,5.53Z"/><rect class="cls-1" x="9.65" y="4.73" width="1.6" height="1.59" rx="0.79"/><path class="cls-1" d="M15.26,22.14a.8.8,0,0,1,.8.8c0,.32,0,.66,0,.9a1.55,1.55,0,0,1-1.41,1.41h-1a.81.81,0,0,1-.81-.81h0a.8.8,0,0,1,.81-.8h.78V23a.8.8,0,0,1,.8-.81Z"/><path class="cls-1" d="M5.71,22.14h0a.8.8,0,0,1,.8.8v.71h.76a.79.79,0,0,1,.79.8v0a.8.8,0,0,1-.8.8c-.36,0-.75,0-1,0a1.56,1.56,0,0,1-1.35-1.36,2.83,2.83,0,0,1,0-.3v-.63A.8.8,0,0,1,5.71,22.14Z"/><rect class="cls-1" x="4.92" y="9.52" width="1.58" height="1.58" rx="0.79"/><rect class="cls-1" x="14.47" y="9.52" width="1.58" height="1.58" rx="0.79"/><rect class="cls-1" x="4.93" y="12.65" width="1.58" height="1.58" rx="0.79"/><rect class="cls-1" x="14.47" y="12.72" width="1.58" height="1.58" rx="0.79"/><rect class="cls-1" x="4.93" y="15.77" width="1.58" height="1.58" rx="0.79"/><rect class="cls-1" x="14.46" y="15.85" width="1.58" height="1.58" rx="0.79"/><rect class="cls-1" x="4.93" y="18.9" width="1.58" height="1.58" rx="0.79"/><rect class="cls-1" x="14.47" y="18.98" width="1.58" height="1.58" rx="0.79"/><rect class="cls-1" x="9.66" y="23.67" width="1.58" height="1.58" rx="0.79"/></g></svg>