<svg xmlns="http://www.w3.org/2000/svg" viewBox="0 0 30 30"><defs><style>.cls-1{fill:#687777;}</style></defs><title>choose-from-images</title><g id="Layer_2" data-name="Layer 2"><path class="cls-1" d="M21.72,3.47H16a4.81,4.81,0,0,0-4.8,4.81v.09a4.81,4.81,0,0,0-3.84,4.71v.09a4.83,4.83,0,0,0-3.85,4.71v3.84a4.82,4.82,0,0,0,4.81,4.81H14a4.81,4.81,0,0,0,4.8-4.81v-.09a4.81,4.81,0,0,0,3.84-4.71v-.09a4.83,4.83,0,0,0,3.85-4.71V8.28A4.82,4.82,0,0,0,21.72,3.47ZM5.39,17.88A2.88,2.88,0,0,1,8.28,15H14a2.85,2.85,0,0,1,2.53,1.54l-3.32,3.32-.45-.46a1.91,1.91,0,0,0-2.6-.1L5.76,23.1a2.88,2.88,0,0,1-.37-1.38Zm11.53,3.84A2.88,2.88,0,0,1,14,24.61H8.28a2.86,2.86,0,0,1-1.08-.22l4.23-3.63.46.47a1.93,1.93,0,0,0,2.72,0l2.31-2.32Zm3.84-4.8a2.88,2.88,0,0,1-1.92,2.71V17.88a4.8,4.8,0,0,0-4.8-4.8H9.24a2.88,2.88,0,0,1,2.88-2.88h5.76a2.88,2.88,0,0,1,2.88,2.88Zm3.85-4.8a2.88,2.88,0,0,1-1.93,2.7V13.08a4.8,4.8,0,0,0-4.8-4.8h-4.8A2.88,2.88,0,0,1,16,5.39h5.76a2.89,2.89,0,0,1,2.89,2.89ZM7.32,17.88a1,1,0,1,1,1,1A1,1,0,0,1,7.32,17.88Z"/></g></svg>