<svg xmlns="http://www.w3.org/2000/svg" viewBox="0 0 30 30"><defs><style>.cls-1{fill:#687777;}</style></defs><title>water</title><g id="Layer_2" data-name="Layer 2"><path class="cls-1" d="M22.85,5.9A2.49,2.49,0,0,0,21,5.05H9A2.49,2.49,0,0,0,6.54,7.54a1.83,1.83,0,0,0,0,.33L8.4,21.36A4.17,4.17,0,0,0,12.51,25h5a4.17,4.17,0,0,0,4.11-3.59L23.44,7.87A2.48,2.48,0,0,0,22.85,5.9ZM20,21.14a2.49,2.49,0,0,1-2.47,2.15h-5A2.49,2.49,0,0,1,10,21.14L8.87,12.51h9.45a.83.83,0,1,0,0-1.66H8.64L8.2,7.65a.83.83,0,0,1,.71-.93H21a.83.83,0,0,1,.83.83s0,.07,0,.11Z"/></g></svg>