<svg xmlns="http://www.w3.org/2000/svg" viewBox="0 0 30 30"><defs><style>.cls-1{fill:#687777;}</style></defs><title>weight</title><g id="Layer_2" data-name="Layer 2"><path class="cls-1" d="M20.89,6.59H18.76A5,5,0,0,0,14,5a4.84,4.84,0,0,0-2.7,1.59H9.11A4.2,4.2,0,0,0,4.9,10.8V20.9a4.22,4.22,0,0,0,4.21,4.21H20.89A4.22,4.22,0,0,0,25.1,20.9V10.8A4.2,4.2,0,0,0,20.89,6.59ZM15,6.59A3.36,3.36,0,0,1,18.37,10a.85.85,0,0,1-.84.85h-1.8l.81-1.22a.84.84,0,0,0-.23-1.17.85.85,0,0,0-1.17.23L13.71,10.8H12.47a.85.85,0,0,1-.84-.85A3.36,3.36,0,0,1,15,6.59ZM23.42,20.9a2.52,2.52,0,0,1-2.53,2.52H9.11A2.52,2.52,0,0,1,6.58,20.9V10.8A2.53,2.53,0,0,1,9.11,8.27h1.17A5.4,5.4,0,0,0,10,10.13a2.35,2.35,0,0,0,2.34,2.35h5.42a2.33,2.33,0,0,0,2.34-2.23,6.33,6.33,0,0,0-.29-2h1.13a2.53,2.53,0,0,1,2.53,2.53Z"/></g></svg>