<svg xmlns="http://www.w3.org/2000/svg" viewBox="0 0 30 30"><defs><style>.cls-1{fill:#b7afb9;}</style></defs><title>big-home</title><g id="Layer_2" data-name="Layer 2"><path class="cls-1" d="M26.21,12,18.56,4.39a5,5,0,0,0-7.12,0L3.79,12a3,3,0,0,0-.88,2.14v9.89a3,3,0,0,0,3,3H24.07a3,3,0,0,0,3-3V14.17A3,3,0,0,0,26.21,12ZM18,25.07H12v-4a3,3,0,1,1,6,0Zm7.06-1a1,1,0,0,1-1,1H20v-4a5,5,0,0,0-10.08,0v4h-4a1,1,0,0,1-1-1V14.17a1,1,0,0,1,.3-.71l7.64-7.64a3,3,0,0,1,4.28,0l7.64,7.64a1,1,0,0,1,.3.71Z"/></g></svg>