<svg xmlns="http://www.w3.org/2000/svg" viewBox="0 0 30 30"><defs><style>.cls-1{fill:#b7afb9;}</style></defs><title>big-sweetheart</title><g id="Layer_2" data-name="Layer 2"><path class="cls-1" d="M11.83,27.54H6.64a4.18,4.18,0,0,1-4.18-4.18V18.13A4.18,4.18,0,0,1,6.64,14H15.9a3.29,3.29,0,0,1,2.81,1.58l3.36-3.69a3.14,3.14,0,0,1,4.44-.21h0a3.16,3.16,0,0,1,.23,4.42l-7.1,8A10.5,10.5,0,0,1,11.83,27.54ZM6.64,16a2.1,2.1,0,0,0-2.09,2.09v5.23a2.1,2.1,0,0,0,2.09,2.09h5.19a8.37,8.37,0,0,0,6.24-2.8l7.11-8a1.05,1.05,0,0,0-.07-1.48,1.07,1.07,0,0,0-.76-.28,1.09,1.09,0,0,0-.74.34L19,18.34a3.29,3.29,0,0,1-2.63,2.15L11,21.26a1,1,0,0,1-1.18-.89,1,1,0,0,1,.88-1.18l5.39-.77A1.2,1.2,0,0,0,15.9,16ZM14,11.94a2.12,2.12,0,0,1-1.31-.45c-1.78-1.44-3.92-3.6-3.92-5.69a3.25,3.25,0,0,1,3.14-3.34A3,3,0,0,1,14,3.32a3,3,0,0,1,2.09-.86A3.25,3.25,0,0,1,19.18,5.8c0,2.09-2.13,4.25-3.92,5.69a2.11,2.11,0,0,1-1.3.45ZM11.87,4.55a1.17,1.17,0,0,0-1,1.25c0,1,1.21,2.5,3.14,4.06,1.93-1.56,3.13-3.11,3.13-4.06a1.16,1.16,0,0,0-1-1.25A1.17,1.17,0,0,0,15,5.8a1,1,0,1,1-2.09,0A1.16,1.16,0,0,0,11.87,4.55Z"/></g></svg>