<svg xmlns="http://www.w3.org/2000/svg" viewBox="0 0 30 30"><defs><style>.cls-1{fill:#b7afb9;}</style></defs><title>big-memories</title><g id="Layer_2" data-name="Layer 2"><path class="cls-1" d="M17.66,9.69A3.71,3.71,0,0,0,15,10.74a3.78,3.78,0,0,0-6.37,2.88c0,3.46,5.17,7.16,5.76,7.56a1.05,1.05,0,0,0,1.22,0c.59-.4,5.76-4.1,5.76-7.56A3.82,3.82,0,0,0,17.66,9.69ZM15,19c-1.85-1.42-4.25-3.78-4.25-5.38-.08-2.13,3.1-2.55,3.19-.26v.58a1.06,1.06,0,0,0,2.12,0v-.58c.09-2.29,3.27-1.87,3.19.26C19.25,15.21,16.85,17.58,15,19Zm.89-16.72A12.75,12.75,0,0,0,2.28,14.11a13.52,13.52,0,0,0,0,1.8c.47,6.75,6.43,11.84,13.87,11.84h6.29a5.33,5.33,0,0,0,5.31-5.31V15.36A13,13,0,0,0,15.89,2.28Zm9.73,20.16a3.18,3.18,0,0,1-3.18,3.18H16.15c-6.41,0-11.35-4.14-11.75-9.86A10.64,10.64,0,0,1,14.24,4.4a12.51,12.51,0,0,1,1.5,0,10.84,10.84,0,0,1,9.88,11Z"/></g></svg>