<svg xmlns="http://www.w3.org/2000/svg" viewBox="0 0 30 30"><defs><style>.cls-1{fill:#b7afb9;}</style></defs><title>calendar</title><g id="Layer_2" data-name="Layer 2"><path class="cls-1" d="M22.74,3.94h-1.1V2.83a1.11,1.11,0,0,0-2.22,0V3.94H10.58V2.83a1.11,1.11,0,0,0-2.22,0V3.94H7.26A5.53,5.53,0,0,0,1.73,9.47V22.74a5.52,5.52,0,0,0,5.53,5.53H22.74a5.52,5.52,0,0,0,5.53-5.53V9.47A5.53,5.53,0,0,0,22.74,3.94ZM3.94,9.47A3.32,3.32,0,0,1,7.26,6.15H22.74a3.32,3.32,0,0,1,3.32,3.32v1.11H3.94Zm18.8,16.59H7.26a3.31,3.31,0,0,1-3.32-3.32V12.79H26.06v10A3.31,3.31,0,0,1,22.74,26.06Z"/><circle class="cls-1" cx="15" cy="18.32" r="1.66"/><circle class="cls-1" cx="9.47" cy="18.32" r="1.66"/><circle class="cls-1" cx="20.53" cy="18.32" r="1.66"/></g></svg>