<svg xmlns="http://www.w3.org/2000/svg" viewBox="0 0 30 30"><defs><style>.cls-1{fill:#b7afb9;}</style></defs><title>heart</title><g id="Layer_2" data-name="Layer 2"><path class="cls-1" d="M15,28.31a1,1,0,0,1-.73-.3C12.6,26.34,11,24.86,9.35,23.43,4.45,19,.21,15.25.21,9.6a7.91,7.91,0,0,1,7.9-7.91c3.39,0,5.33,1.58,6.89,4.08,1.54-2.5,3.47-4.08,6.88-4.08A7.93,7.93,0,0,1,29.79,9.6c0,5.65-4.24,9.44-9.14,13.82C19,24.86,17.39,26.33,15.71,28A1,1,0,0,1,15,28.31ZM8.11,3.74A5.87,5.87,0,0,0,2.25,9.6c0,4.74,3.74,8.08,8.47,12.31,1.38,1.25,2.81,2.52,4.28,3.95,1.46-1.43,2.89-2.71,4.28-4,4.73-4.23,8.47-7.56,8.47-12.3a5.88,5.88,0,0,0-5.87-5.86c-2.75,0-4.25,1.16-6,4.6a1.05,1.05,0,0,1-1.81,0C12.36,4.9,10.86,3.74,8.11,3.74Z"/></g></svg>