<svg xmlns="http://www.w3.org/2000/svg" viewBox="0 0 145 110"><defs><style>.cls-1{fill:#b7afb9;}.cls-2{fill:#e2dede;}</style></defs><title>not-period</title><g id="Layer_2" data-name="Layer 2"><path class="cls-1" d="M111,20.2h-7.79C101.3,18.13,99.67,16,98.09,14,93.72,8.38,89.59,3.07,81.78,3.07H63.22C55.41,3.07,51.28,8.38,46.91,14c-1.58,2-3.21,4.13-5.13,6.2H34c-.56,0-1.11,0-1.66,0h-.17c-.5,0-1,.07-1.48.12h0A31.67,31.67,0,0,0,2.36,51.83v6.34A31.67,31.67,0,0,0,34,89.8h7.79C43.7,91.87,45.33,94,46.91,96c4.37,5.62,8.5,10.93,16.31,10.93H81.78c7.81,0,11.94-5.31,16.31-10.93,1.58-2,3.21-4.13,5.13-6.2H111a32.25,32.25,0,0,0,3.27-.17h0a31.68,31.68,0,0,0,28.36-31.46V51.83A31.67,31.67,0,0,0,111,20.2Zm27.28,38a27.31,27.31,0,0,1-25.1,27.18c-.66.05-1.32.09-2,.09h-9.84l-.64.66a90.69,90.69,0,0,0-6.07,7.22c-4.17,5.37-7.19,9.25-12.87,9.25H63.22c-5.68,0-8.7-3.88-12.87-9.25a90.69,90.69,0,0,0-6.07-7.22l-.64-.66H34A27.31,27.31,0,0,1,6.71,58.17V51.83A27.31,27.31,0,0,1,32.29,24.61c.56,0,1.13-.06,1.7-.06h9.65l.64-.66a90.69,90.69,0,0,0,6.07-7.22c4.17-5.37,7.19-9.25,12.87-9.25H81.78c5.68,0,8.7,3.88,12.87,9.25a90.69,90.69,0,0,0,6.07,7.22l.64.66H111a27.31,27.31,0,0,1,27.28,27.28Z"/><path class="cls-2" d="M128.59,60C122.09,71.4,123.75,73.51,91.65,74c-2.17,0-38,.39-38.49.38-33.22-.94-31.59-5.49-37.13-15-.35-.6,0,0-.48-.5-.3-.22-.61-.43-.91-.66v.09A20.57,20.57,0,0,0,35.2,78.92h74.66a20.57,20.57,0,0,0,20.56-20.56V56.49c-.48.4-1,.78-1.46,1.16C128.2,58.55,129.15,59,128.59,60Z"/><path class="cls-1" d="M113.11,80.75H32A19.16,19.16,0,0,1,12.81,61.61V49.07A19.16,19.16,0,0,1,32,29.93h81.16a19.16,19.16,0,0,1,19.14,19.14V61.61A19.16,19.16,0,0,1,113.11,80.75ZM32,33.6A15.49,15.49,0,0,0,16.47,49.07V61.61A15.49,15.49,0,0,0,32,77.08h81.16a15.49,15.49,0,0,0,15.48-15.47V49.07A15.49,15.49,0,0,0,113.11,33.6Z"/><path class="cls-1" d="M72.5,70.64A12.47,12.47,0,0,0,85,58.18c0-8.89-10.59-18.28-11-18.68a2.17,2.17,0,0,0-2.92.07c-1.12,1.09-11,10.82-11,18.61A12.47,12.47,0,0,0,72.5,70.64Zm.1-27.95c3.13,3.15,8.84,10.4,8.84,15.27,0,6.49-4.42,9.69-8.91,9.69s-9-3.2-9-9.69C63.54,53.65,69.44,46.08,72.6,42.69Z"/><circle class="cls-2" cx="31.78" cy="41.71" r="2.01"/><circle class="cls-2" cx="31.78" cy="49.12" r="2.01"/><circle class="cls-2" cx="31.78" cy="55.82" r="2.01"/><circle class="cls-2" cx="39.65" cy="41.53" r="2.01"/><circle class="cls-2" cx="39.65" cy="48.94" r="2.01"/><circle class="cls-2" cx="39.65" cy="55.64" r="2.01"/><circle class="cls-2" cx="47.3" cy="41.62" r="2.01"/><circle class="cls-2" cx="47.3" cy="49.03" r="2.01"/><circle class="cls-2" cx="47.3" cy="55.73" r="2.01"/><circle class="cls-2" cx="55.17" cy="41.44" r="2.01"/><circle class="cls-2" cx="55.17" cy="48.85" r="2.01"/><circle class="cls-2" cx="55.17" cy="55.55" r="2.01"/><circle class="cls-2" cx="31.78" cy="63.23" r="2.01"/><circle class="cls-2" cx="31.78" cy="69.93" r="2.01"/><circle class="cls-2" cx="39.65" cy="63.05" r="2.01"/><circle class="cls-2" cx="39.65" cy="69.75" r="2.01"/><circle class="cls-2" cx="47.3" cy="63.14" r="2.01"/><circle class="cls-2" cx="47.3" cy="69.84" r="2.01"/><circle class="cls-2" cx="55.17" cy="62.96" r="2.01"/><circle class="cls-2" cx="55.17" cy="69.66" r="2.01"/><circle class="cls-2" cx="91.65" cy="41.85" r="2.01"/><circle class="cls-2" cx="91.65" cy="49.26" r="2.01"/><circle class="cls-2" cx="91.65" cy="55.95" r="2.01"/><circle class="cls-2" cx="99.52" cy="41.67" r="2.01"/><circle class="cls-2" cx="99.52" cy="49.08" r="2.01"/><circle class="cls-2" cx="99.52" cy="55.77" r="2.01"/><circle class="cls-2" cx="107.17" cy="41.76" r="2.01"/><circle class="cls-2" cx="107.17" cy="49.17" r="2.01"/><circle class="cls-2" cx="107.17" cy="55.86" r="2.01"/><circle class="cls-2" cx="115.04" cy="41.58" r="2.01"/><circle class="cls-2" cx="115.04" cy="48.99" r="2.01"/><circle class="cls-2" cx="115.04" cy="55.68" r="2.01"/><circle class="cls-2" cx="91.65" cy="63.36" r="2.01"/><circle class="cls-2" cx="91.65" cy="70.06" r="2.01"/><circle class="cls-2" cx="99.52" cy="63.18" r="2.01"/><circle class="cls-2" cx="99.52" cy="69.88" r="2.01"/><circle class="cls-2" cx="107.17" cy="63.27" r="2.01"/><circle class="cls-2" cx="107.17" cy="69.97" r="2.01"/><circle class="cls-2" cx="115.04" cy="63.09" r="2.01"/><circle class="cls-2" cx="115.04" cy="69.79" r="2.01"/></g></svg>