<svg xmlns="http://www.w3.org/2000/svg" viewBox="0 0 30 30"><defs><style>.cls-1{fill:#cec8c8;}</style></defs><title>small-sweetheart</title><g id="Layer_2" data-name="Layer 2"><path class="cls-1" d="M12.29,25.74H7.84a3.58,3.58,0,0,1-3.58-3.58V17.68a3.58,3.58,0,0,1,3.58-3.57h7.93a2.82,2.82,0,0,1,2.41,1.35l2.88-3.16a2.69,2.69,0,0,1,3.8-.18h0a2.71,2.71,0,0,1,.2,3.79L19,22.74A8.94,8.94,0,0,1,12.29,25.74ZM7.84,15.89a1.79,1.79,0,0,0-1.79,1.79v4.48A1.79,1.79,0,0,0,7.84,24h4.45a7.14,7.14,0,0,0,5.34-2.4l6.09-6.83a.91.91,0,0,0-.06-1.27,1,1,0,0,0-.66-.24.91.91,0,0,0-.62.29l-4,4.36a2.84,2.84,0,0,1-2.25,1.84l-4.62.66a.9.9,0,0,1-1-.76.89.89,0,0,1,.76-1l4.62-.66a1,1,0,0,0-.14-2Zm6.27-3.51A1.81,1.81,0,0,1,13,12c-1.53-1.23-3.36-3.08-3.36-4.87a2.79,2.79,0,0,1,2.69-2.86A2.6,2.6,0,0,1,14.11,5a2.6,2.6,0,0,1,1.79-.73,2.77,2.77,0,0,1,2.68,2.86c0,1.79-1.82,3.64-3.36,4.87a1.73,1.73,0,0,1-1.11.39ZM12.32,6.05a1,1,0,0,0-.9,1.07c0,.81,1,2.14,2.69,3.48,1.65-1.34,2.68-2.67,2.68-3.48a1,1,0,0,0-.89-1.07A1,1,0,0,0,15,7.12a.9.9,0,1,1-1.79,0A1,1,0,0,0,12.32,6.05Z"/></g></svg>