<svg xmlns="http://www.w3.org/2000/svg" viewBox="0 0 30 30"><defs><style>.cls-1{fill:#cec8c8;}</style></defs><title>small-memories</title><g id="Layer_2" data-name="Layer 2"><path class="cls-1" d="M17.22,10.55a3.15,3.15,0,0,0-2.22.88,3.18,3.18,0,0,0-5.34,2.41c0,2.9,4.34,6,4.83,6.34a.9.9,0,0,0,1,0c.49-.34,4.83-3.44,4.83-6.34A3.23,3.23,0,0,0,17.22,10.55ZM15,18.35c-1.55-1.19-3.56-3.17-3.56-4.51-.07-1.78,2.59-2.13,2.67-.21v.48a.89.89,0,0,0,1.78,0v-.48c.08-1.92,2.73-1.57,2.67.21C18.56,15.18,16.55,17.16,15,18.35Zm.74-14A10.68,10.68,0,0,0,4.35,14.26a12.51,12.51,0,0,0,0,1.5c.4,5.65,5.39,9.91,11.61,9.91h5.27a4.44,4.44,0,0,0,4.44-4.44V15.3A10.86,10.86,0,0,0,15.74,4.35Zm8.15,16.88a2.66,2.66,0,0,1-2.66,2.66H16c-5.36,0-9.5-3.46-9.83-8.25a8.88,8.88,0,0,1,9.49-9.51,9.06,9.06,0,0,1,8.27,9.17Z"/></g></svg>