<svg xmlns="http://www.w3.org/2000/svg" viewBox="0 0 30 30"><defs><style>.cls-1{fill:#cec8c8;}</style></defs><title>small-home</title><g id="Layer_2" data-name="Layer 2"><path class="cls-1" d="M25,12.36,18.16,5.58a4.46,4.46,0,0,0-6.32,0L5.05,12.36a2.68,2.68,0,0,0-.79,1.9v8.79A2.68,2.68,0,0,0,7,25.73h16.1a2.68,2.68,0,0,0,2.69-2.68V14.26A2.68,2.68,0,0,0,25,12.36ZM17.68,23.94H12.32V20.42a2.68,2.68,0,1,1,5.36,0ZM24,23.05a.89.89,0,0,1-.9.89H19.47V20.42a4.47,4.47,0,1,0-8.94,0v3.52H7a.89.89,0,0,1-.9-.89V14.26a.94.94,0,0,1,.26-.63L13.1,6.84a2.7,2.7,0,0,1,3.8,0l6.79,6.79a.94.94,0,0,1,.26.63Z"/></g></svg>