<svg xmlns="http://www.w3.org/2000/svg" viewBox="0 0 35 35"><defs><style>.cls-1{fill:#fbfbfa;}</style></defs><title>symptoms</title><g id="Layer_2" data-name="Layer 2"><path class="cls-1" d="M12.94,18.28a8.4,8.4,0,1,0-8.4-8.4A8.4,8.4,0,0,0,12.94,18.28Zm0-14a5.6,5.6,0,1,1-5.6,5.59A5.59,5.59,0,0,1,12.94,4.29Z"/><path class="cls-1" d="M12.94,19.52A12.62,12.62,0,0,0,.34,32.11a1.4,1.4,0,0,0,2.8,0,9.8,9.8,0,0,1,19.59,0,1.4,1.4,0,0,0,2.8,0A12.61,12.61,0,0,0,12.94,19.52Z"/><path class="cls-1" d="M31.49,11.86c-1.83.09-3.25.88-3.16,2.71.08-1.83-1.33-2.62-3.17-2.71A3.34,3.34,0,0,0,22,15.34c0,2.74,3.57,5.94,5.35,7.37a1.56,1.56,0,0,0,2,0c1.77-1.42,5.34-4.63,5.34-7.37A3.33,3.33,0,0,0,31.49,11.86Zm-3.16,8.53c-2.14-1.72-3.47-3.44-3.47-4.48A1.29,1.29,0,0,1,26,14.52a1.29,1.29,0,0,1,1.15,1.39,1.16,1.16,0,1,0,2.31,0,1.3,1.3,0,0,1,1.16-1.39,1.28,1.28,0,0,1,1.15,1.39C31.79,17,30.46,18.67,28.33,20.39Z"/></g></svg>