<svg xmlns="http://www.w3.org/2000/svg" viewBox="0 0 20 20"><defs><style>.cls-1{fill:#b8b4bb;}</style></defs><title>comment</title><g id="Layer_2" data-name="Layer 2"><path class="cls-1" d="M15.43,1.86H4.57A2.71,2.71,0,0,0,1.86,4.57v8.14a2.71,2.71,0,0,0,2.71,2.72h2l3,2.55a.69.69,0,0,0,.88,0l3-2.55h2a2.71,2.71,0,0,0,2.71-2.72V4.57A2.71,2.71,0,0,0,15.43,1.86Zm1.35,10.85a1.35,1.35,0,0,1-1.35,1.36h-2a1.36,1.36,0,0,0-.88.32L10,16.57,7.42,14.39h0a1.36,1.36,0,0,0-.88-.32h-2a1.35,1.35,0,0,1-1.35-1.36V4.57A1.34,1.34,0,0,1,4.57,3.22H15.43a1.34,1.34,0,0,1,1.35,1.35Z"/><path class="cls-1" d="M6.61,6.61H10a.68.68,0,0,0,0-1.36H6.61a.68.68,0,1,0,0,1.36Z"/><path class="cls-1" d="M13.39,8H6.61a.68.68,0,1,0,0,1.35h6.78a.68.68,0,1,0,0-1.35Z"/><path class="cls-1" d="M13.39,10.68H6.61a.68.68,0,0,0,0,1.36h6.78a.68.68,0,0,0,0-1.36Z"/></g></svg>