<svg xmlns="http://www.w3.org/2000/svg" viewBox="0 0 30 30"><defs><style>.cls-1{fill:#c03762;}</style></defs><title>delete</title><g id="Layer_2" data-name="Layer 2"><path class="cls-1" d="M23.9,7.09H20.83a5,5,0,0,0-4.84-4H14a5,5,0,0,0-4.84,4H6.1a1,1,0,0,0,0,2h1V21.92A5,5,0,0,0,12,26.87H18a5,5,0,0,0,4.94-4.95V9.07h1a1,1,0,0,0,0-2ZM14,5.11h2a3,3,0,0,1,2.8,2H11.21A3,3,0,0,1,14,5.11Zm6.92,16.81a3,3,0,0,1-3,3H12a3,3,0,0,1-3-3V9.07H20.93Z"/><path class="cls-1" d="M13,20.93a1,1,0,0,0,1-1V14a1,1,0,0,0-2,0v5.93A1,1,0,0,0,13,20.93Z"/><path class="cls-1" d="M17,20.93a1,1,0,0,0,1-1V14a1,1,0,0,0-2,0v5.93A1,1,0,0,0,17,20.93Z"/></g></svg>