<svg xmlns="http://www.w3.org/2000/svg" viewBox="0 0 30 30"><defs><style>.cls-1{fill:#b8b4bb;}</style></defs><title>disabled-edit</title><g id="Layer_2" data-name="Layer 2"><path class="cls-1" d="M24.7,5.3a3.22,3.22,0,0,0-4.56,0L5.66,19.78a4.37,4.37,0,0,0-1.3,3.15v1.82a.88.88,0,0,0,.89.89H7.07a4.38,4.38,0,0,0,3.15-1.3L24.7,9.86A3.22,3.22,0,0,0,24.7,5.3ZM9,23.08a2.67,2.67,0,0,1-1.89.78H6.14v-.93A2.63,2.63,0,0,1,6.92,21l11-11,2,2ZM23.44,8.6l-2.23,2.23-2.05-2,2.23-2.23a1.45,1.45,0,0,1,2.05,2.05h0Z"/></g></svg>