<svg xmlns="http://www.w3.org/2000/svg" viewBox="0 0 20 20"><defs><style>.cls-1{fill:#b8b4bb;}</style></defs><title>disabled-like</title><g id="Layer_2" data-name="Layer 2"><path class="cls-1" d="M13.93,2.45A4.6,4.6,0,0,0,10,4.81,4.6,4.6,0,0,0,6.07,2.45,4.87,4.87,0,0,0,1.41,7.5c0,3.25,3.43,6.8,6.3,9.21a3.57,3.57,0,0,0,4.58,0c2.87-2.41,6.3-6,6.3-9.21A4.87,4.87,0,0,0,13.93,2.45ZM11.37,15.62a2.14,2.14,0,0,1-2.74,0C5,12.53,2.85,9.57,2.85,7.5A3.43,3.43,0,0,1,6.07,3.88,3.43,3.43,0,0,1,9.28,7.5a.72.72,0,0,0,1.44,0,3.43,3.43,0,0,1,3.21-3.62A3.43,3.43,0,0,1,17.15,7.5c0,2.07-2.1,5-5.78,8.11Z"/></g></svg>