<svg xmlns="http://www.w3.org/2000/svg" viewBox="0 0 20 20"><defs><style>.cls-1{fill:#b8b4bb;}</style></defs><title>disabled-report</title><g id="Layer_2" data-name="Layer 2"><path class="cls-1" d="M10,12a.67.67,0,0,1-.67-.67V6a.67.67,0,0,1,1.34,0v5.37A.67.67,0,0,1,10,12Zm.53,5.88C12,17.31,16.71,15,16.71,10V6.56a3.35,3.35,0,0,0-2.3-3.19L10.21,2a.61.61,0,0,0-.42,0L5.59,3.37a3.35,3.35,0,0,0-2.3,3.19V10c0,4.4,4.7,7.1,6.14,7.82a3.49,3.49,0,0,0,.57.2A2.49,2.49,0,0,0,10.53,17.89ZM14,4.65a2,2,0,0,1,1.38,1.91V10c0,4.15-4.09,6.11-5.34,6.62-1.27-.64-5.4-3-5.4-6.62V6.56A2,2,0,0,1,6,4.65l4-1.32Zm-4,8.71a.67.67,0,1,0,.67.67A.67.67,0,0,0,10,13.36Z"/></g></svg>