<svg xmlns="http://www.w3.org/2000/svg" viewBox="0 0 30 30"><defs><style>.cls-1{fill:#fbfbfa;}</style></defs><title>white-edit</title><g id="Layer_2" data-name="Layer 2"><path class="cls-1" d="M23.94,6.07a3,3,0,0,0-4.21,0L6.4,19.4a4.05,4.05,0,0,0-1.2,2.9V24A.81.81,0,0,0,6,24.8H7.7a4.05,4.05,0,0,0,2.9-1.2L23.94,10.27A3,3,0,0,0,23.94,6.07ZM9.44,22.44a2.47,2.47,0,0,1-1.74.72H6.84V22.3a2.39,2.39,0,0,1,.72-1.74L17.68,10.44l1.88,1.89ZM22.78,9.11l-2.06,2.05L18.83,9.28l2.06-2.06a1.33,1.33,0,0,1,1.88,1.89h0Z"/></g></svg>