<svg xmlns="http://www.w3.org/2000/svg" viewBox="0 0 30 30"><defs><style>.cls-1{fill:#fbfbfa;}</style></defs><title>white-calendar</title><g id="Layer_2" data-name="Layer 2"><path class="cls-1" d="M20.87,6.62H20V5.78a.84.84,0,1,0-1.68,0v.84h-6.7V5.78a.84.84,0,1,0-1.68,0v.84H9.13a4.2,4.2,0,0,0-4.19,4.19V20.87a4.21,4.21,0,0,0,4.19,4.19H20.87a4.21,4.21,0,0,0,4.19-4.19V10.81A4.2,4.2,0,0,0,20.87,6.62ZM6.62,10.81A2.51,2.51,0,0,1,9.13,8.3H20.87a2.51,2.51,0,0,1,2.51,2.51v.84H6.62ZM20.87,23.38H9.13a2.52,2.52,0,0,1-2.51-2.51V13.32H23.38v7.55A2.52,2.52,0,0,1,20.87,23.38Z"/><circle class="cls-1" cx="15" cy="17.51" r="1.26"/><circle class="cls-1" cx="10.81" cy="17.51" r="1.26"/><circle class="cls-1" cx="19.19" cy="17.51" r="1.26"/></g></svg>