<svg xmlns="http://www.w3.org/2000/svg" viewBox="0 0 218 218"><defs><style>.cls-1{fill:#4ab754;}</style></defs><title>accepted-fingerPrint</title><g id="Layer_2" data-name="Layer 2"><path class="cls-1" d="M133.08,194.44a2.45,2.45,0,0,1-.81-.13c-22.92-7.77-39.55-41-38-63.32.8-11.84,6.51-19.38,16.06-21.23a19.49,19.49,0,0,1,3.67-.36c11,0,17.56,10.4,23.39,19.58,5,7.93,9.78,15.4,16.51,16.81a11.7,11.7,0,0,0,2.37.25c3.47,0,7.34-1.47,11.81-4.48a2.51,2.51,0,0,1,3.47.68,2.5,2.5,0,0,1-.68,3.47c-5.33,3.59-10.1,5.33-14.59,5.33a16.84,16.84,0,0,1-3.4-.35c-8.8-1.85-14.34-10.58-19.71-19-6.62-10.43-11.54-17.27-19.19-17.27a14.2,14.2,0,0,0-2.7.27c-9.12,1.76-11.58,10-12,16.66-1.39,20.46,14.32,51.35,34.65,58.24a2.55,2.55,0,0,1,1.44,1.26,2.51,2.51,0,0,1-2.24,3.61Z"/><path class="cls-1" d="M76.5,32.88a2.5,2.5,0,0,1-1.34-4.61c9.37-5.9,20.73-9.1,33.77-9.49h.15c10.81.32,20.5,2.58,28.8,6.71a2.46,2.46,0,0,1,1.26,1.44,2.53,2.53,0,0,1-.13,1.91,2.51,2.51,0,0,1-2.25,1.38,2.37,2.37,0,0,1-1.1-.26C128,26.17,119.07,24.09,109,23.78c-12.13.38-22.61,3.31-31.19,8.72A2.51,2.51,0,0,1,76.5,32.88Z"/><path class="cls-1" d="M121.11,197.94a2.59,2.59,0,0,1-1.06-.23c-10.47-4.9-20.92-15.3-28-27.82-5.74-10.22-11.91-26.47-8.72-45.87,2.28-13.85,13.33-24.57,26.88-26.08a26.91,26.91,0,0,1,3.2-.19c14.82,0,23.1,12.27,29.76,22.12,4.67,6.92,9.08,13.44,14.39,14.06a9.08,9.08,0,0,0,.91,0c3.29,0,7.11-2,11.67-6.26a2.49,2.49,0,0,1,3.54.14,2.5,2.5,0,0,1-.14,3.53c-5.53,5.11-10.47,7.59-15.1,7.59a14.09,14.09,0,0,1-1.45-.08c-7.6-.88-12.63-8.34-18-16.23-6.62-9.79-13.46-19.91-25.68-19.91a25.23,25.23,0,0,0-2.58.14c-11.34,1.27-20.59,10.29-22.51,21.93-5.23,31.82,16.31,60.14,33.87,68.35a2.5,2.5,0,0,1-1.06,4.76Z"/><path class="cls-1" d="M107.94,199.22a2.53,2.53,0,0,1-1.26-.34c-19.51-11.52-40-39.19-33.47-79.27,3-18.3,17.66-32.53,35.71-34.6a38.73,38.73,0,0,1,4.38-.25c17.53,0,26.59,13.12,33.88,23.67,4.67,6.77,8.7,12.61,13.56,13.27a6.11,6.11,0,0,0,1,.07c2.71,0,5.8-1.48,9.44-4.53a2.51,2.51,0,0,1,4.1,2.15,2.5,2.5,0,0,1-.89,1.69c-4.59,3.83-8.72,5.69-12.64,5.69a13.06,13.06,0,0,1-1.65-.11c-7-1-11.87-8-17-15.37-7-10.1-14.86-21.52-29.94-21.52a32.53,32.53,0,0,0-3.64.21c-15.84,1.81-28.73,14.33-31.34,30.43C72,158,91.07,183.85,109.22,194.57a2.5,2.5,0,0,1,.88,3.43A2.53,2.53,0,0,1,107.94,199.22Z"/><path class="cls-1" d="M143.88,188.53a2.75,2.75,0,0,1-.7-.1c-20.08-5.83-38.49-37.13-37.58-56.24a9.23,9.23,0,0,1,4.91-7.76,9.17,9.17,0,0,1,9.13.2c5.52,3.3,9.65,9.42,13.65,15.33,6.54,9.67,11.79,16.51,19.89,16.51,3.44,0,7.29-1.22,11.76-3.75a2.5,2.5,0,0,1,2.46,4.36c-5.12,2.89-9.9,4.35-14.21,4.35-11.42,0-18.12-9.91-24-18.67-3.87-5.72-7.51-11.11-12.08-13.84a4.14,4.14,0,0,0-2.14-.61,4.42,4.42,0,0,0-2.06.53,4.27,4.27,0,0,0-2.28,3.59c-.81,17,16.16,46,34,51.2a2.5,2.5,0,0,1-.69,4.9Z"/><path class="cls-1" d="M90.46,196.39a2.5,2.5,0,0,1-1.65-.62c-21.11-18.42-31-44.72-27.85-74.06A55,55,0,0,1,77.37,88.09a53.1,53.1,0,0,1,34.17-14.92c.87,0,1.74-.07,2.59-.07,21.43,0,31.11,14.32,38.18,24.78,3.93,5.81,7.32,10.82,11.32,11.59a6.34,6.34,0,0,0,1.16.11c2,0,4.18-.87,6.79-2.65a2.54,2.54,0,0,1,1.41-.43,2.5,2.5,0,0,1,1.41,4.57c-3.48,2.36-6.62,3.51-9.6,3.51a11.43,11.43,0,0,1-2.11-.2c-6-1.16-10-7-14.52-13.7C141,90.09,132.9,78.1,114.16,78.1q-1.16,0-2.37.06c-24,1.23-43.24,19.77-45.86,44.08C63,149.91,72.26,174.68,92.1,192a2.5,2.5,0,0,1-1.64,4.39Z"/><path class="cls-1" d="M60.68,174.34a2.5,2.5,0,0,1-2.29-1.49c-8-18-10.79-35.22-8.41-51.19,5.61-37.54,29.68-61.8,61.32-61.8,27.71,0,39.39,15.54,47.12,25.83,5,6.7,7.8,9.86,11.32,9.86a6.8,6.8,0,0,0,2.22-.39,2.66,2.66,0,0,1,.79-.12A2.5,2.5,0,0,1,175,98.66a2.46,2.46,0,0,1-1.45,1.25,12.41,12.41,0,0,1-3.87.67c-6.31,0-10.64-5.77-15.24-11.89-8-10.62-17.91-23.84-43.12-23.83-35.26,0-52.41,31-56.37,57.54-2.24,15,.46,31.31,8,48.43a2.48,2.48,0,0,1,0,1.91,2.53,2.53,0,0,1-1.32,1.39A2.5,2.5,0,0,1,60.68,174.34Z"/><path class="cls-1" d="M45,111.5l-.39,0a2.51,2.51,0,0,1-2.08-2.86C44.14,98.47,51,81.46,62.38,68.06c9.07-10.7,24.74-23.46,47.84-23.46a66.37,66.37,0,0,1,8,.49c19.6,2.38,30.53,13.93,39.31,23.2,4.77,5,8.88,9.39,13.27,11.07A2.5,2.5,0,0,1,169,84c-5.45-2.09-9.93-6.82-15.11-12.3-8.66-9.15-18.47-19.51-36.29-21.68a61.74,61.74,0,0,0-7.26-.44c-40.79,0-60.37,43.82-62.89,59.78A2.49,2.49,0,0,1,45,111.5Z"/><path class="cls-1" d="M49.1,74.54A2.59,2.59,0,0,1,48,74.28a2.51,2.51,0,0,1-1.11-3.36c11.64-23.17,33.7-37.88,59-39.35,1.32-.07,2.67-.11,4-.11,23.92,0,45.55,12,59.32,33a2.47,2.47,0,0,1,.36,1.87,2.51,2.51,0,0,1-1.08,1.59,2.5,2.5,0,0,1-3.46-.72C152.36,48,131.76,36.46,109.89,36.46c-1.23,0-2.49,0-3.72.11-23.5,1.36-44,15-54.83,36.6A2.48,2.48,0,0,1,49.1,74.54Z"/><path class="cls-1" d="M155.92,176.78l-.29,0c-19.59-2.27-31.61-21-37-32a2.46,2.46,0,0,1-.12-1.9,2.43,2.43,0,0,1,1.26-1.44,2.37,2.37,0,0,1,1.1-.26,2.5,2.5,0,0,1,2.25,1.39c5,10.07,15.89,27.26,33.13,29.27a2.42,2.42,0,0,1,1.67.93,2.5,2.5,0,0,1-2,4.05Z"/></g></svg>